<?xml version="1.0" encoding="UTF-8" standalone="no"?>
<!-- Created with Inkscape (http://www.inkscape.org/) -->

<svg
   width="170.573mm"
   height="18.742001mm"
   viewBox="0 0 170.573 18.742001"
   version="1.1"
   id="svg1"
   inkscape:version="1.3.2 (091e20ef0f, 2023-11-25, custom)"
   sodipodi:docname="divider-wedding1.svg"
   xmlns:inkscape="http://www.inkscape.org/namespaces/inkscape"
   xmlns:sodipodi="http://sodipodi.sourceforge.net/DTD/sodipodi-0.dtd"
   xmlns="http://www.w3.org/2000/svg"
   xmlns:svg="http://www.w3.org/2000/svg">
  <sodipodi:namedview
     id="namedview1"
     pagecolor="#505050"
     bordercolor="#eeeeee"
     borderopacity="1"
     inkscape:showpageshadow="0"
     inkscape:pageopacity="0"
     inkscape:pagecheckerboard="0"
     inkscape:deskcolor="#505050"
     inkscape:document-units="mm"
     inkscape:zoom="0.84158405"
     inkscape:cx="417.07064"
     inkscape:cy="291.11769"
     inkscape:window-width="1896"
     inkscape:window-height="1056"
     inkscape:window-x="0"
     inkscape:window-y="0"
     inkscape:window-maximized="1"
     inkscape:current-layer="layer1" />
  <defs
     id="defs1" />
  <g
     inkscape:label="Layer 1"
     inkscape:groupmode="layer"
     id="layer1">
    <g
       id="g1"
       transform="translate(112.97708,-61.647904)">
      <path
         d="m 0.22660107,77.571093 c -1.72261397,1.576564 -4.66513367,3.050469 -6.99135047,1.938161 -2.579864,-1.233311 -2.0224751,-4.748742 -0.2398889,-6.412795 2.0023668,-1.869722 5.0729448,-2.214034 7.68067829,-2.338564 0.41733611,-0.01976 0.83467231,-0.02963 1.25165561,-0.03175 1.532114,2.356908 0.17145,5.131153 -1.70109453,6.844948 z M 52.492749,62.62178 c -5.804253,-2.577747 -11.87062,0.430037 -16.739307,3.57999 -0.236008,0.152752 -0.02857,0.511527 0.220839,0.377825 5.001331,-2.684992 11.676945,-5.924904 17.156996,-2.541764 2.249311,1.38818 3.892903,4.04883 3.567289,6.745817 -0.31362,2.595033 -2.334684,4.533547 -4.514851,5.748867 -5.236986,2.919236 -11.90625,2.73685 -17.619134,1.651353 C 28.546545,77.040867 22.824841,74.813076 17.001185,72.977926 12.202349,71.46592 7.1999598,70.207914 2.1488873,70.192745 1.3149206,69.097017 0.04280384,68.379114 -1.2681185,67.943081 c -2.1547668,-0.716492 -4.4534669,-0.731309 -6.6964282,-0.588786 -2.6056163,0.165452 -5.1971223,0.616655 -7.7110173,1.31833 -5.02285,1.402645 -9.761714,3.816703 -13.804901,7.11447 -1.030816,0.841022 -1.987903,1.73355 -2.885722,2.715331 -0.01164,0.01305 0.0063,0.03104 0.0194,0.01905 4.049536,-3.603625 8.488186,-6.576484 13.602406,-8.448323 4.586112,-1.678869 9.8742507,-2.777067 14.7718649,-2.220383 1.9342807,0.220133 4.16242528,0.822325 5.4969837,2.344561 -0.8247945,0.01446 -1.65064733,0.06209 -2.47685293,0.149225 -2.27576957,0.240242 -4.70711417,0.756003 -6.43607817,2.366081 -1.4174612,1.320094 -2.1547668,3.545417 -1.4015862,5.395031 0.7288389,1.788936 2.6405418,2.459214 4.4467642,2.242608 2.2373168,-0.268817 4.33246411,-1.576564 5.7693281,-3.281539 1.3585473,-1.612547 2.1752279,-3.79095 1.3239751,-5.840589 -0.072319,-0.17392 -0.1562806,-0.33902 -0.2469445,-0.499181 2.3808974,0.03316 4.7547392,0.339372 7.0880116,0.814917 5.8755142,1.19768 11.4465812,3.428294 17.1457062,5.233106 5.320242,1.684514 10.915651,3.058583 16.537871,2.817989 4.532136,-0.194381 9.919759,-1.423459 12.838642,-5.214409 3.188759,-4.141611 0.887589,-9.756776 -3.620558,-11.75879"
         style="fill:#231f20;fill-opacity:1;fill-rule:nonzero;stroke:none;stroke-width:0.0352778"
         id="path62" />
      <path
         d="m -57.309341,70.726145 c 0.417336,0.0021 0.834672,0.01199 1.252008,0.03175 2.607733,0.12453 5.677959,0.468842 7.680325,2.338564 1.782587,1.664053 2.339976,5.179484 -0.239888,6.412795 -2.326217,1.112308 -5.268384,-0.361597 -6.991351,-1.938161 -1.872192,-1.713795 -3.233208,-4.48804 -1.701094,-6.844948 z m -54.185439,3.654425 c 2.91896,3.79095 8.30669,5.020028 12.838469,5.214409 5.62222,0.240594 11.217982,-1.133475 16.538224,-2.817989 5.698772,-1.804812 11.269839,-4.035426 17.145706,-5.233106 2.333273,-0.475545 4.706762,-0.781756 7.088012,-0.814917 -0.09066,0.160161 -0.174978,0.325261 -0.247297,0.499181 -0.851253,2.049639 -0.03457,4.228042 1.324327,5.840589 1.436864,1.704975 3.532012,3.012722 5.768976,3.281539 1.806222,0.216606 3.718278,-0.453672 4.446764,-2.242608 0.753181,-1.849614 0.01623,-4.074937 -1.401586,-5.395031 -1.728612,-1.610078 -4.160309,-2.125839 -6.435726,-2.366081 -0.826558,-0.08714 -1.652411,-0.134761 -2.477205,-0.149225 1.334911,-1.522236 3.562703,-2.124428 5.496983,-2.344561 4.897614,-0.556684 10.185754,0.541514 14.771865,2.220383 5.11422,1.871839 9.553223,4.844698 13.602406,8.448323 0.01305,0.01199 0.0314,-0.006 0.0194,-0.01905 -0.897466,-0.981781 -1.854905,-1.874309 -2.885722,-2.715331 -4.043186,-3.297767 -8.781698,-5.711825 -13.804548,-7.11447 -2.513895,-0.701675 -5.105401,-1.152878 -7.711017,-1.31833 -2.242962,-0.142523 -4.541662,-0.127706 -6.696781,0.588786 -1.310923,0.436033 -2.583039,1.153936 -3.417006,2.249664 -5.051073,0.01517 -10.053462,1.273175 -14.851945,2.785181 -5.823656,1.83515 -11.545712,4.062941 -17.563396,5.205942 -5.712884,1.085497 -12.382493,1.267883 -17.619453,-1.651353 -2.1802,-1.21532 -4.20094,-3.153834 -4.51456,-5.748867 -0.32608,-2.696987 1.3178,-5.357637 3.56704,-6.745817 5.48033,-3.38314 12.155942,-0.143228 17.15692,2.541764 0.249414,0.133702 0.4572,-0.225073 0.221192,-0.377825 -4.868687,-3.149953 -10.935052,-6.157737 -16.739652,-3.57999 -4.50787,2.002014 -6.80918,7.617179 -3.62039,11.75879"
         style="fill:#231f20;fill-opacity:1;fill-rule:nonzero;stroke:none;stroke-width:0.0352778"
         id="path64" />
    </g>
  </g>
</svg>
