<?xml version="1.0" encoding="UTF-8" standalone="no"?>
<!-- Created with Inkscape (http://www.inkscape.org/) -->

<svg
   width="25mm"
   height="25mm"
   viewBox="0 0 25 25"
   version="1.1"
   id="svg1"
   inkscape:version="1.3.2 (091e20ef0f, 2023-11-25, custom)"
   sodipodi:docname="icon-rings.svg"
   xmlns:inkscape="http://www.inkscape.org/namespaces/inkscape"
   xmlns:sodipodi="http://sodipodi.sourceforge.net/DTD/sodipodi-0.dtd"
   xmlns="http://www.w3.org/2000/svg"
   xmlns:svg="http://www.w3.org/2000/svg">
  <sodipodi:namedview
     id="namedview1"
     pagecolor="#505050"
     bordercolor="#eeeeee"
     borderopacity="1"
     inkscape:showpageshadow="0"
     inkscape:pageopacity="0"
     inkscape:pagecheckerboard="0"
     inkscape:deskcolor="#505050"
     inkscape:document-units="mm"
     inkscape:zoom="2.8423809"
     inkscape:cx="51.717206"
     inkscape:cy="96.398057"
     inkscape:window-width="1896"
     inkscape:window-height="1056"
     inkscape:window-x="0"
     inkscape:window-y="0"
     inkscape:window-maximized="1"
     inkscape:current-layer="layer1" />
  <defs
     id="defs1" />
  <g
     inkscape:label="Layer 1"
     inkscape:groupmode="layer"
     id="layer1">
    <g
       id="g1"
       transform="matrix(0.99998836,0,0,1.0000292,-1.0920194,-13.119467)">
      <path
         d="m 15.105241,27.236912 c 0,2.684992 -2.176921,4.862336 -4.862724,4.862336 -2.6842511,0 -4.862654,-2.177344 -4.862654,-4.862336 0,-2.68605 2.1784029,-4.863395 4.862654,-4.863395 2.685803,0 4.862724,2.177345 4.862724,4.863395 z"
         style="fill:none;stroke:#121719;stroke-width:0.705556;stroke-linecap:round;stroke-linejoin:round;stroke-miterlimit:10;stroke-dasharray:none;stroke-opacity:1"
         id="path40" />
      <path
         d="m 21.804492,27.236912 c 0,2.684992 -2.176992,4.862336 -4.863042,4.862336 -2.684286,0 -4.862689,-2.177344 -4.862689,-4.862336 0,-2.68605 2.178403,-4.863395 4.862689,-4.863395 2.68605,0 4.863042,2.177345 4.863042,4.863395 z"
         style="fill:none;stroke:#121719;stroke-width:0.705556;stroke-linecap:round;stroke-linejoin:round;stroke-miterlimit:10;stroke-dasharray:none;stroke-opacity:1"
         id="path42" />
      <path
         d="m 16.94145,22.373517 c 0.288219,-0.453319 1.970264,-0.858308 1.970264,-2.173111 0,-0.586317 -0.475192,-1.062214 -1.061861,-1.062214 -0.384881,0 -0.721431,0.204258 -0.908403,0.510117 -0.186972,-0.305859 -0.523522,-0.510117 -0.908756,-0.510117 -0.585964,0 -1.061508,0.475897 -1.061508,1.062214 0,1.314803 1.681692,1.719792 1.970264,2.173111 z"
         style="fill:none;stroke:#121719;stroke-width:0.705556;stroke-linecap:round;stroke-linejoin:round;stroke-miterlimit:10;stroke-dasharray:none;stroke-opacity:1"
         id="path44" />
    </g>
  </g>
</svg>
