<?xml version="1.0" encoding="UTF-8" standalone="no"?>
<!-- Created with Inkscape (http://www.inkscape.org/) -->

<svg
   width="25mm"
   height="25mm"
   viewBox="0 0 25 25"
   version="1.1"
   id="svg1"
   inkscape:version="1.3.2 (091e20ef0f, 2023-11-25, custom)"
   sodipodi:docname="icon-dinner.svg"
   xmlns:inkscape="http://www.inkscape.org/namespaces/inkscape"
   xmlns:sodipodi="http://sodipodi.sourceforge.net/DTD/sodipodi-0.dtd"
   xmlns="http://www.w3.org/2000/svg"
   xmlns:svg="http://www.w3.org/2000/svg">
  <sodipodi:namedview
     id="namedview1"
     pagecolor="#505050"
     bordercolor="#eeeeee"
     borderopacity="1"
     inkscape:showpageshadow="0"
     inkscape:pageopacity="0"
     inkscape:pagecheckerboard="0"
     inkscape:deskcolor="#505050"
     inkscape:document-units="mm"
     inkscape:zoom="2.8423809"
     inkscape:cx="51.717206"
     inkscape:cy="96.398057"
     inkscape:window-width="1896"
     inkscape:window-height="1056"
     inkscape:window-x="0"
     inkscape:window-y="0"
     inkscape:window-maximized="1"
     inkscape:current-layer="layer1" />
  <defs
     id="defs1" />
  <g
     inkscape:label="Layer 1"
     inkscape:groupmode="layer"
     id="layer1">
    <g
       id="g1"
       transform="matrix(0.99997187,0,0,0.99999131,-13.156286,-9.3058749)">
      <path
         d="m 25.369317,14.717876 1.863725,6.565548 c 0.45967,1.61925 2.145595,2.559756 3.765198,2.099733 1.61925,-0.459669 2.559403,-2.145594 2.099733,-3.764844 l -1.864078,-6.565548"
         style="fill:none;stroke:#121719;stroke-width:0.705556;stroke-linecap:round;stroke-linejoin:round;stroke-miterlimit:10;stroke-dasharray:none;stroke-opacity:1"
         id="path104" />
      <path
         d="m 30.99824,23.383157 1.590322,5.602465"
         style="fill:none;stroke:#121719;stroke-width:0.705556;stroke-linecap:round;stroke-linejoin:round;stroke-miterlimit:10;stroke-dasharray:none;stroke-opacity:1"
         id="path106" />
      <path
         d="m 30.884645,29.46928 3.407834,-0.967669"
         style="fill:none;stroke:#121719;stroke-width:0.705556;stroke-linecap:round;stroke-linejoin:round;stroke-miterlimit:10;stroke-dasharray:none;stroke-opacity:1"
         id="path108" />
      <path
         d="m 26.001495,16.944963 c 0,0 1.646061,-0.753534 3.710164,-0.255059 1.426986,0.343959 2.213681,-1.201914 2.213681,-1.201914"
         style="fill:none;stroke:#121719;stroke-width:0.705556;stroke-linecap:round;stroke-linejoin:round;stroke-miterlimit:10;stroke-dasharray:none;stroke-opacity:1"
         id="path110" />
      <path
         d="m 25.763017,16.448252 -1.682045,5.925255 c -0.460022,1.619603 -2.145594,2.559756 -3.765197,2.100087 -1.61925,-0.460023 -2.559403,-2.145595 -2.099733,-3.764845 l 1.864077,-6.5659"
         style="fill:none;stroke:#121719;stroke-width:0.705556;stroke-linecap:round;stroke-linejoin:round;stroke-miterlimit:10;stroke-dasharray:none;stroke-opacity:1"
         id="path112" />
      <path
         d="m 20.315775,24.473594 -1.590322,5.602111"
         style="fill:none;stroke:#121719;stroke-width:0.705556;stroke-linecap:round;stroke-linejoin:round;stroke-miterlimit:10;stroke-dasharray:none;stroke-opacity:1"
         id="path114" />
      <path
         d="m 20.429369,30.559364 -3.407833,-0.96767"
         style="fill:none;stroke:#121719;stroke-width:0.705556;stroke-linecap:round;stroke-linejoin:round;stroke-miterlimit:10;stroke-dasharray:none;stroke-opacity:1"
         id="path116" />
      <path
         d="m 25.31252,18.035399 c 0,0 -1.646061,-0.753534 -3.710164,-0.255411 -1.426987,0.344311 -2.213681,-1.201561 -2.213681,-1.201561"
         style="fill:none;stroke:#121719;stroke-width:0.705556;stroke-linecap:round;stroke-linejoin:round;stroke-miterlimit:10;stroke-dasharray:none;stroke-opacity:1"
         id="path118" />
      <path
         d="m 28.430017,18.035399 c 0,0.219075 -0.1778,0.396875 -0.396875,0.396875 -0.219075,0 -0.396875,-0.1778 -0.396875,-0.396875 0,-0.219428 0.1778,-0.396875 0.396875,-0.396875 0.219075,0 0.396875,0.177447 0.396875,0.396875"
         style="fill:#121719;fill-opacity:1;fill-rule:nonzero;stroke:none;stroke-width:0.0352778"
         id="path120" />
      <path
         d="m 31.395115,18.432274 c 0,0.219075 -0.1778,0.396875 -0.396875,0.396875 -0.219075,0 -0.396875,-0.1778 -0.396875,-0.396875 0,-0.219428 0.1778,-0.396875 0.396875,-0.396875 0.219075,0 0.396875,0.177447 0.396875,0.396875"
         style="fill:#121719;fill-opacity:1;fill-rule:nonzero;stroke:none;stroke-width:0.0352778"
         id="path122" />
      <path
         d="m 30.085603,21.03401 c 0,0.219075 -0.1778,0.396875 -0.396875,0.396875 -0.219075,0 -0.396875,-0.1778 -0.396875,-0.396875 0,-0.219428 0.1778,-0.396875 0.396875,-0.396875 0.219075,0 0.396875,0.177447 0.396875,0.396875"
         style="fill:#121719;fill-opacity:1;fill-rule:nonzero;stroke:none;stroke-width:0.0352778"
         id="path124" />
      <path
         d="m 22.98595,18.969554 c 0,0.219428 -0.1778,0.396875 -0.396875,0.396875 -0.219075,0 -0.396875,-0.177447 -0.396875,-0.396875 0,-0.219075 0.1778,-0.396875 0.396875,-0.396875 0.219075,0 0.396875,0.1778 0.396875,0.396875"
         style="fill:#121719;fill-opacity:1;fill-rule:nonzero;stroke:none;stroke-width:0.0352778"
         id="path126" />
      <path
         d="m 23.165161,20.734855 c 0,0.219075 -0.1778,0.396875 -0.396875,0.396875 -0.219428,0 -0.396875,-0.1778 -0.396875,-0.396875 0,-0.219428 0.177447,-0.396875 0.396875,-0.396875 0.219075,0 0.396875,0.177447 0.396875,0.396875"
         style="fill:#121719;fill-opacity:1;fill-rule:nonzero;stroke:none;stroke-width:0.0352778"
         id="path128" />
      <path
         d="m 21.22312,21.924069 c 0,0.219427 -0.177801,0.396875 -0.396876,0.396875 -0.219075,0 -0.396875,-0.177448 -0.396875,-0.396875 0,-0.219075 0.1778,-0.396876 0.396875,-0.396876 0.219075,0 0.396876,0.177801 0.396876,0.396876"
         style="fill:#121719;fill-opacity:1;fill-rule:nonzero;stroke:none;stroke-width:0.0352778"
         id="path130" />
    </g>
  </g>
</svg>
