<?xml version="1.0" encoding="UTF-8" standalone="no"?>
<!-- Created with Inkscape (http://www.inkscape.org/) -->

<svg
   width="25mm"
   height="25mm"
   viewBox="0 0 25 25"
   version="1.1"
   id="svg1"
   inkscape:version="1.3.2 (091e20ef0f, 2023-11-25, custom)"
   sodipodi:docname="icon-hearts.svg"
   xmlns:inkscape="http://www.inkscape.org/namespaces/inkscape"
   xmlns:sodipodi="http://sodipodi.sourceforge.net/DTD/sodipodi-0.dtd"
   xmlns="http://www.w3.org/2000/svg"
   xmlns:svg="http://www.w3.org/2000/svg">
  <sodipodi:namedview
     id="namedview1"
     pagecolor="#505050"
     bordercolor="#eeeeee"
     borderopacity="1"
     inkscape:showpageshadow="0"
     inkscape:pageopacity="0"
     inkscape:pagecheckerboard="0"
     inkscape:deskcolor="#505050"
     inkscape:document-units="mm"
     inkscape:zoom="2.8423809"
     inkscape:cx="51.717206"
     inkscape:cy="96.398057"
     inkscape:window-width="1896"
     inkscape:window-height="1056"
     inkscape:window-x="0"
     inkscape:window-y="0"
     inkscape:window-maximized="1"
     inkscape:current-layer="layer1" />
  <defs
     id="defs1" />
  <g
     inkscape:label="Layer 1"
     inkscape:groupmode="layer"
     id="layer1">
    <g
       id="g1"
       transform="matrix(1.0000129,0,0,1.000006,-1.1091136,-13.078526)">
      <path
         d="m 16.610195,24.842255 c 0,-2.922411 -3.225095,-5.291667 -7.2026642,-5.291667 -3.9775697,0 -7.2026643,2.369256 -7.2026643,5.291667 0,2.735087 2.8253974,4.985103 6.4484254,5.262387 1.4883691,2.48285 4.9462971,1.83903 4.9462971,1.83903 -1.103136,-0.330905 -1.660525,-1.24213 -1.9431,-2.07645 2.875139,-0.694619 4.953706,-2.680053 4.953706,-5.024967 z"
         style="fill:none;stroke:#121719;stroke-width:0.705556;stroke-linecap:round;stroke-linejoin:round;stroke-miterlimit:10;stroke-dasharray:none;stroke-opacity:1"
         id="path76" />
      <path
         d="m 14.431792,20.907019 c 1.063978,-1.072092 2.786945,-1.768828 4.730751,-1.768828 3.231444,0 5.850467,1.924403 5.850467,4.298245 0,2.221794 -2.294467,4.049536 -5.237692,4.274608 -1.20897,2.016831 -4.017434,1.494014 -4.017434,1.494014 0.895703,-0.269169 1.348317,-1.009297 1.577975,-1.686983 -0.459317,-0.110772 -0.893586,-0.262467 -1.2954,-0.448733"
         style="fill:none;stroke:#121719;stroke-width:0.705556;stroke-linecap:round;stroke-linejoin:round;stroke-miterlimit:10;stroke-dasharray:none;stroke-opacity:1"
         id="path78" />
      <path
         d="m 9.4075308,26.518655 c 0.2882195,-0.453319 1.9702642,-0.858308 1.9702642,-2.173111 0,-0.586317 -0.475545,-1.062567 -1.062214,-1.062567 -0.3845279,0 -0.7214307,0.204612 -0.9080502,0.51047 -0.1869722,-0.305858 -0.5235223,-0.51047 -0.9087556,-0.51047 -0.5859639,0 -1.0615084,0.47625 -1.0615084,1.062567 0,1.314803 1.6816918,1.719792 1.970264,2.173111"
         style="fill:#121719;fill-opacity:1;fill-rule:nonzero;stroke:none;stroke-width:0.0352778"
         id="path80" />
      <path
         d="m 19.90267,25.104722 c 0.28822,-0.453672 1.970264,-0.858661 1.970264,-2.173464 0,-0.586317 -0.475544,-1.062214 -1.062214,-1.062214 -0.384527,0 -0.72143,0.204258 -0.90805,0.510117 -0.186972,-0.305859 -0.523522,-0.510117 -0.908755,-0.510117 -0.585964,0 -1.061509,0.475897 -1.061509,1.062214 0,1.314803 1.681692,1.719792 1.970264,2.173464"
         style="fill:#121719;fill-opacity:1;fill-rule:nonzero;stroke:none;stroke-width:0.0352778"
         id="path82" />
    </g>
  </g>
</svg>
