<?xml version="1.0" encoding="UTF-8" standalone="no"?>
<!-- Created with Inkscape (http://www.inkscape.org/) -->

<svg
   width="25mm"
   height="25mm"
   viewBox="0 0 25 25"
   version="1.1"
   id="svg1"
   inkscape:version="1.3.2 (091e20ef0f, 2023-11-25, custom)"
   sodipodi:docname="icon-cake.svg"
   xmlns:inkscape="http://www.inkscape.org/namespaces/inkscape"
   xmlns:sodipodi="http://sodipodi.sourceforge.net/DTD/sodipodi-0.dtd"
   xmlns="http://www.w3.org/2000/svg"
   xmlns:svg="http://www.w3.org/2000/svg">
  <sodipodi:namedview
     id="namedview1"
     pagecolor="#505050"
     bordercolor="#eeeeee"
     borderopacity="1"
     inkscape:showpageshadow="0"
     inkscape:pageopacity="0"
     inkscape:pagecheckerboard="0"
     inkscape:deskcolor="#505050"
     inkscape:document-units="mm"
     inkscape:zoom="2.8423809"
     inkscape:cx="51.717206"
     inkscape:cy="96.398057"
     inkscape:window-width="1896"
     inkscape:window-height="1056"
     inkscape:window-x="0"
     inkscape:window-y="0"
     inkscape:window-maximized="1"
     inkscape:current-layer="layer1" />
  <defs
     id="defs1" />
  <g
     inkscape:label="Layer 1"
     inkscape:groupmode="layer"
     id="layer1">
    <g
       id="g1"
       transform="matrix(0.9999862,0,0,1.0000024,-1.0785345,-12.921026)">
      <path
         d="m 4.0604858,28.432316 0.016122,5.371395 h -0.00441 c 0,0.02575 0.00208,0.05115 0.00483,0.07585 l 2.47e-4,0.03246 h 0.00441 c 0.2280708,1.28658 4.4496922,2.301875 9.6212032,2.289528 5.172075,-0.01235 9.388123,-1.04775 9.610373,-2.335742 h 0.01235 l -0.0042,-1.766711 v 0 l -0.01199,-4.140906"
         style="fill:none;stroke:#121719;stroke-width:0.705556;stroke-linecap:round;stroke-linejoin:round;stroke-miterlimit:10;stroke-dasharray:none;stroke-opacity:1"
         id="path198" />
      <path
         d="m 23.313264,33.8658 h 0.01235 l -0.0028,-1.357842 c -0.181681,0.1397 -0.474134,0.311856 -0.540456,0.357364 -0.214136,0.149578 -0.435328,0.290336 -0.667455,0.410633 -0.498123,0.257175 -1.05657,0.428625 -1.622778,0.370064 -1.090789,-0.113594 -2.139245,-1.034697 -3.179939,-0.221191 -0.545395,0.426508 -1.027289,0.983191 -1.690864,1.226608 -0.822325,0.300214 -1.72332,0.141111 -2.493998,-0.233539 C 12.605576,34.163544 12.171906,33.76173 11.650571,33.508436 11.035009,33.208575 10.552021,33.308411 9.9153626,33.488328 9.4812695,33.611094 9.0695073,33.788189 8.6424697,33.930005 8.264045,34.055947 7.878353,34.1071 7.4806313,34.082758 6.4437821,34.018905 5.5983854,33.353919 4.7245548,32.866733 4.5141228,32.748905 4.2970939,32.642014 4.0735739,32.55135 l 0.00303,1.252361 h -0.00441 c 0,0.02575 0.00208,0.05115 0.00483,0.07585 l 2.47e-4,0.03246 h 0.00441 c 0.2280708,1.28658 4.4496922,2.301875 9.6212031,2.289528 5.172075,-0.01235 9.388123,-1.04775 9.610373,-2.335742 z"
         style="fill:none;stroke:#121719;stroke-width:0.705556;stroke-linecap:round;stroke-linejoin:round;stroke-miterlimit:10;stroke-dasharray:none;stroke-opacity:1"
         id="path200" />
      <path
         d="m 7.4428841,24.942285 c -1.3229167,0.296334 -2.3399046,0.683684 -2.9071007,1.124656 -0.4808009,0.329142 -0.7777692,0.84067 -0.7407276,1.840442 0.04632,1.246364 1.1391195,-0.153106 2.7038655,0.125236 0.6518275,0.115711 0.8633531,2.048581 1.7940515,2.143478 0.7131403,0.07232 2.0288952,-1.501422 2.8823362,-1.278114 1.220505,0.319617 1.26626,1.035755 1.894099,1.643944 1.786008,1.731081 2.188527,-1.437922 2.951586,-1.475669 0.900289,-0.04551 1.80728,0.799042 2.544586,0.720725 0.951442,-0.101247 1.531056,-2.011892 2.205567,-2.131836 1.589617,-0.28187 1.657703,1.282347 2.526947,0.373239 -0.0011,-0.348545 0.142875,-0.837142 -0.01975,-1.261534 -0.07267,-0.743303 -1.374423,-1.404055 -3.392664,-1.848556"
         style="fill:none;stroke:#121719;stroke-width:0.705556;stroke-linecap:round;stroke-linejoin:round;stroke-miterlimit:10;stroke-dasharray:none;stroke-opacity:1"
         id="path202" />
      <path
         d="m 19.840872,21.962371 0.01517,2.623962 v 0 l 0.0032,1.138766 h -0.0081 c -0.143227,0.829734 -2.860675,1.497189 -6.194072,1.505656 -3.33308,0.0074 -6.0535967,-0.646995 -6.2007756,-1.476022 h -0.00303 v -0.02081 c -0.00222,-0.01623 -0.0036,-0.0321 -0.0036,-0.04868 h 0.00317 l -0.010336,-3.465689"
         style="fill:none;stroke:#121719;stroke-width:0.705556;stroke-linecap:round;stroke-linejoin:round;stroke-miterlimit:10;stroke-dasharray:none;stroke-opacity:1"
         id="path204" />
      <path
         d="m 19.851102,25.725099 h 0.0081 L 19.8571,24.85021 c -0.11677,0.08925 -0.305506,0.200378 -0.347839,0.230012 -0.138642,0.09631 -0.280811,0.186619 -0.430742,0.264583 -0.321028,0.166158 -0.680861,0.276225 -1.045986,0.238478 -0.703086,-0.07303 -1.378303,-0.667103 -2.049286,-0.142875 -0.351367,0.275166 -0.661812,0.633941 -1.089378,0.790575 -0.530225,0.193322 -1.11125,0.09137 -1.607573,-0.150284 -0.336515,-0.164041 -0.615986,-0.42298 -0.951372,-0.586316 -0.396875,-0.19297 -0.708307,-0.128764 -1.118975,-0.01235 -0.279894,0.07832 -0.545007,0.192617 -0.820773,0.284339 -0.243911,0.08079 -0.4922312,0.113948 -0.7482773,0.09878 -0.6686198,-0.04163 -1.2132029,-0.4699 -1.7761304,-0.784225 -0.1361722,-0.07585 -0.2760486,-0.144639 -0.4197703,-0.2032 l 0.0018,0.807508 h -0.00317 c 0,0.01658 0.00138,0.03246 0.0036,0.04868 v 0.02081 h 0.00303 c 0.1471789,0.829027 2.867696,1.48343 6.200776,1.476022 3.333397,-0.0085 6.050845,-0.675922 6.194072,-1.505656 z"
         style="fill:none;stroke:#121719;stroke-width:0.705556;stroke-linecap:round;stroke-linejoin:round;stroke-miterlimit:10;stroke-dasharray:none;stroke-opacity:1"
         id="path206" />
      <path
         d="m 19.828525,21.149924 c -0.08573,-0.878417 -2.831748,-1.577622 -6.205715,-1.569508 -2.729477,0.0071 -5.0462039,0.474133 -5.873997,1.1176 -0.3100564,0.213077 -0.5010503,0.542219 -0.4774847,1.186391 0.029457,0.803628 0.7344834,-0.09842 1.7423695,0.08079 0.4202995,0.07514 0.5567187,1.320094 1.1568642,1.381477 0.459564,0.04692 1.307218,-0.967316 1.857587,-0.823383 0.786589,0.206022 0.815799,0.667456 1.220682,1.059745 1.151149,1.115483 1.410793,-0.926748 1.902213,-0.951442 0.580319,-0.02963 1.164872,0.515055 1.640417,0.464255 0.612775,-0.06562 0.986719,-1.296811 1.421341,-1.374069 1.024467,-0.181681 1.068564,0.826911 1.62807,0.240594 0,-0.224719 0.09278,-0.539397 -0.01235,-0.812447 z"
         style="fill:none;stroke:#121719;stroke-width:0.705556;stroke-linecap:round;stroke-linejoin:round;stroke-miterlimit:10;stroke-dasharray:none;stroke-opacity:1"
         id="path208" />
      <path
         d="m 11.735449,17.868385 c -0.105833,-0.526697 0.828922,-1.982611 -0.08033,-2.931936 -0.405836,-0.423686 -1.078301,-0.438856 -1.501634,-0.03316 -0.2780951,0.265994 -0.3800832,0.646288 -0.3028954,0.996244 -0.3468511,-0.09066 -0.7317317,-0.006 -1.0094031,0.260703 -0.4233334,0.404989 -0.4375503,1.077383 -0.031715,1.501422 0.9092495,0.949325 2.4037225,0.07832 2.9259745,0.206728"
         style="fill:#121719;fill-opacity:1;fill-rule:nonzero;stroke:none;stroke-width:0.0352778"
         id="path210" />
      <path
         d="m 15.026866,17.70011 c 0.418042,-0.336903 2.141361,-0.180622 2.563283,-1.425575 0.188384,-0.555978 -0.109008,-1.158875 -0.664633,-1.346906 -0.364419,-0.124178 -0.748594,-0.0388 -1.023761,0.191559 -0.07902,-0.350309 -0.33267,-0.651934 -0.696736,-0.775406 -0.555272,-0.188031 -1.158523,0.110419 -1.346553,0.665692 -0.421958,1.244953 1.040342,2.168525 1.1684,2.690636"
         style="fill:#121719;fill-opacity:1;fill-rule:nonzero;stroke:none;stroke-width:0.0352778"
         id="path212" />
      <path
         d="m 13.11033,21.079721 c 0,0 -0.293934,-2.734028 -2.057823,-3.762728"
         style="fill:none;stroke:#121719;stroke-width:0.352778;stroke-linecap:round;stroke-linejoin:round;stroke-miterlimit:10;stroke-dasharray:none;stroke-opacity:1"
         id="path214" />
      <path
         d="m 16.138469,15.994076 c 0,0 -1.881717,2.057401 -1.881717,5.085645"
         style="fill:none;stroke:#121719;stroke-width:0.352778;stroke-linecap:round;stroke-linejoin:round;stroke-miterlimit:10;stroke-dasharray:none;stroke-opacity:1"
         id="path216" />
    </g>
  </g>
</svg>
